<svg width="174" height="37" viewBox="0 0 174 37" fill="none" xmlns="http://www.w3.org/2000/svg">
<path d="M18.6557 16.8618C18.0154 16.226 17.1544 15.8683 16.2537 15.8683H9.46263C8.59339 17.2291 8.03312 18.7639 7.82131 20.3646C7.6095 21.9653 7.75129 23.593 8.23669 25.133C8.7221 26.673 9.53931 28.0878 10.6307 29.2778C11.7222 30.4677 13.0613 31.4039 14.5537 32.0202V24.3593C14.5537 23.9085 14.7328 23.4761 15.0516 23.1573C15.3704 22.8385 15.8028 22.6594 16.2537 22.6594C16.9253 22.6593 17.5819 22.4601 18.1404 22.0869C18.6988 21.7136 19.134 21.1831 19.3909 20.5625C19.6478 19.9419 19.7148 19.259 19.5836 18.6003C19.4523 17.9416 19.1309 17.3366 18.6557 16.8618ZM23.1595 24.505C23.7964 23.8693 24.6594 23.5121 25.5593 23.5116H29.6724C29.3557 25.5302 28.4861 27.4217 27.16 28.9762C25.8338 30.5307 24.1029 31.6875 22.1594 32.3183V26.9071C22.1594 26.0063 22.5193 25.1409 23.1551 24.505" fill="white"/>
<path d="M19.296 10.7861C20.8426 10.8606 22.3562 11.2596 23.7385 11.9572C25.1208 12.6548 26.3409 13.6355 27.3195 14.8354C28.2981 16.0353 29.0133 17.4277 29.4187 18.9221C29.8241 20.4164 29.9105 21.9794 29.6724 23.5093H25.5572C24.6562 23.5099 23.7924 23.8681 23.1553 24.5052C22.5182 25.1422 22.1601 26.0061 22.1595 26.9071V32.316C21.0632 32.6701 19.9182 32.8504 18.7662 32.8503C17.2737 32.8503 15.8519 32.5545 14.5538 32.018V24.3571C14.5549 23.907 14.7346 23.4758 15.0532 23.1579C15.3719 22.8401 15.8037 22.6616 16.2537 22.6616C17.1546 22.6616 18.0185 22.3037 18.6555 21.6667C19.2925 21.0297 19.6504 20.1658 19.6504 19.2649C19.6504 18.3641 19.2925 17.5002 18.6555 16.8632C18.0185 16.2262 17.1546 15.8683 16.2537 15.8683H14.5648C14.606 15.8008 14.6379 15.728 14.6598 15.652L15.7415 11.9429L16.3156 11.7442L19.296 10.7861Z" fill="#D7E0FF"/>
<path d="M1.63391 7.39499L3.84166 6.64436C3.99683 6.59165 4.16499 6.59117 4.32046 6.64299C4.47593 6.69482 4.61017 6.79609 4.70268 6.93137L6.31433 9.42612L15.1453 5.01062C15.8433 4.59929 16.6235 4.34731 17.4302 4.2727C18.2369 4.1981 19.0501 4.30271 19.8117 4.57907C20.5732 4.85542 21.2643 5.29667 21.8354 5.87126C22.4065 6.44585 22.8436 7.13957 23.1153 7.90278C23.1902 8.10077 23.2224 8.31236 23.2097 8.52367C23.1971 8.73497 23.1399 8.94121 23.0419 9.12885C22.9439 9.31649 22.8073 9.48129 22.6411 9.61242C22.475 9.74356 22.2829 9.83807 22.0777 9.88975L16.3154 11.7443L15.7414 11.943L14.6596 15.652C14.6249 15.7811 14.5581 15.8994 14.4655 15.9959C14.3729 16.0924 14.2574 16.1639 14.1298 16.2039L11.5246 17.0429C11.3916 17.0862 11.2497 17.0946 11.1125 17.0674C10.9753 17.0402 10.8474 16.9781 10.7411 16.8873C10.6347 16.7964 10.5535 16.6798 10.5051 16.5485C10.4567 16.4173 10.4429 16.2758 10.4649 16.1377L11.0389 13.378H10.6636L5.03384 15.2104C4.66489 15.3376 4.26064 15.3138 3.90914 15.1443C3.55764 14.9747 3.28739 14.6732 3.15726 14.3052L1.17028 8.18978C1.14841 8.02464 1.1821 7.85691 1.26604 7.71302C1.34997 7.56913 1.47939 7.45725 1.63391 7.39499Z" fill="white"/>
<path d="M7.7272 21.8116C7.72732 23.6632 8.19322 25.4851 9.08202 27.1095C9.97081 28.7339 11.2539 30.1086 12.8133 31.1071C14.3727 32.1056 16.1581 32.6958 18.0054 32.8234C19.8526 32.951 21.7023 32.6118 23.3841 31.8372C25.0659 31.0625 26.5259 29.8772 27.6295 28.3904C28.7332 26.9037 29.4451 25.1631 29.6998 23.3291C29.9544 21.495 29.7437 19.6264 29.0868 17.8952C28.43 16.1639 27.3483 14.6257 25.9411 13.4221M1.63381 7.39499L3.84156 6.64436C3.99673 6.59165 4.16489 6.59117 4.32036 6.64299C4.47583 6.69482 4.61007 6.7961 4.70258 6.93137L6.31424 9.42612L15.1452 5.01062C15.8432 4.59929 16.6234 4.34731 17.4301 4.2727C18.2368 4.1981 19.05 4.30271 19.8116 4.57907C20.5731 4.85542 21.2642 5.29667 21.8353 5.87126C22.4064 6.44585 22.8435 7.13957 23.1152 7.90278C23.1901 8.10077 23.2223 8.31236 23.2096 8.52367C23.197 8.73497 23.1398 8.94121 23.0418 9.12885C22.9438 9.31649 22.8072 9.48129 22.641 9.61242C22.4749 9.74356 22.2828 9.83807 22.0776 9.88975L16.3153 11.7443L15.7413 11.943L14.6595 15.652C14.6248 15.7811 14.558 15.8994 14.4654 15.9959C14.3728 16.0924 14.2573 16.1639 14.1297 16.2039L11.5245 17.0429C11.3915 17.0862 11.2496 17.0946 11.1124 17.0674C10.9752 17.0402 10.8473 16.9781 10.741 16.8873C10.6346 16.7964 10.5534 16.6798 10.505 16.5485C10.4566 16.4173 10.4428 16.2758 10.4648 16.1377L11.0388 13.378H10.6635L5.03374 15.2104C4.6648 15.3376 4.26054 15.3138 3.90904 15.1443C3.55755 14.9747 3.28729 14.6732 3.15716 14.3052L1.17018 8.18978C1.14831 8.02464 1.182 7.85691 1.26594 7.71302C1.34988 7.56913 1.47929 7.45725 1.63381 7.39499Z" stroke="#4147D5" stroke-width="2.20775" stroke-linecap="round" stroke-linejoin="round"/>
<path d="M19.2514 17.7273C19.4643 18.168 19.5832 18.6482 19.6007 19.1373C19.6182 19.6264 19.5338 20.1138 19.353 20.5686C19.0989 21.1878 18.6655 21.7169 18.1084 22.0879C17.5514 22.4589 16.8961 22.6549 16.2268 22.6506C15.7759 22.6506 15.3435 22.8297 15.0247 23.1485C14.7059 23.4673 14.5268 23.8997 14.5268 24.3505V32.0114M29.6499 23.5116H25.5656C25.1117 23.4998 24.6601 23.579 24.2373 23.7446C23.8146 23.9102 23.4293 24.1587 23.1042 24.4756C22.779 24.7925 22.5207 25.1713 22.3443 25.5897C22.168 26.008 22.0772 26.4575 22.0773 26.9115V32.3205" stroke="#4147D5" stroke-width="2.20775" stroke-linecap="round" stroke-linejoin="round"/>
<g filter="url(#filter0_d_107_33)">
<path d="M36.6276 28L45.6941 8.63068H49.6779L58.7444 28H53.6891L51.4088 22.67L53.332 24.0712H42.0126L43.9632 22.67L41.6829 28H36.6276ZM47.6448 13.9057L44.4578 21.5161L43.6885 20.1973H51.6835L50.9142 21.5161L47.6997 13.9057H47.6448ZM66.8166 28.3022C65.1682 28.3022 63.7395 28.0183 62.5307 27.4505C61.3401 26.8644 60.4243 26.0402 59.7832 24.9778C59.1422 23.9155 58.8216 22.6608 58.8216 21.2139C58.8216 19.8218 59.1239 18.6038 59.7283 17.5598C60.351 16.4975 61.1936 15.6732 62.2559 15.0871C63.3366 14.4827 64.5638 14.1805 65.9375 14.1805C67.3112 14.1805 68.4926 14.4644 69.4816 15.0322C70.4707 15.6 71.2308 16.415 71.762 17.4774C72.3115 18.5214 72.5862 19.7486 72.5862 21.1589V22.2304H62.9153V19.9226H69.0146L68.575 20.2797C68.575 19.2907 68.3643 18.558 67.9431 18.0818C67.5218 17.5873 66.9265 17.34 66.1573 17.34C65.5895 17.34 65.0949 17.4774 64.6736 17.7521C64.2707 18.0085 63.9593 18.3932 63.7395 18.906C63.5197 19.4189 63.4098 20.06 63.4098 20.8292V21.0765C63.4098 21.9374 63.5289 22.6334 63.767 23.1645C64.0234 23.6957 64.4172 24.0895 64.9484 24.3459C65.4796 24.584 66.1481 24.7031 66.954 24.7031C67.65 24.7031 68.3735 24.6024 69.1245 24.4009C69.8937 24.1811 70.5714 23.8697 71.1576 23.4668L72.3664 26.6812C71.6704 27.1758 70.8187 27.5696 69.8113 27.8626C68.8039 28.1557 67.8057 28.3022 66.8166 28.3022ZM74.6931 28V14.4827H79.4462V17.8071H79.1714C79.3546 16.7081 79.8125 15.8564 80.5452 15.252C81.2961 14.6292 82.276 14.2812 83.4849 14.2079L84.8311 14.098L85.1059 18.2192L82.4409 18.4664C81.4701 18.558 80.7649 18.8328 80.3254 19.2907C79.8858 19.7303 79.666 20.3896 79.666 21.2688V28H74.6931ZM93.2054 28.3022C91.7035 28.3022 90.3939 28.0183 89.2766 27.4505C88.1593 26.8827 87.2893 26.0676 86.6665 25.0053C86.0438 23.943 85.7324 22.6883 85.7324 21.2413C85.7324 19.7761 86.0438 18.5214 86.6665 17.4774C87.2893 16.415 88.1593 15.6 89.2766 15.0322C90.3939 14.4644 91.7035 14.1805 93.2054 14.1805C94.7073 14.1805 96.0169 14.4644 97.1342 15.0322C98.2515 15.6 99.1124 16.415 99.7168 17.4774C100.34 18.5214 100.651 19.7761 100.651 21.2413C100.651 22.6883 100.34 23.943 99.7168 25.0053C99.1124 26.0676 98.2515 26.8827 97.1342 27.4505C96.0169 28.0183 94.7073 28.3022 93.2054 28.3022ZM93.2054 24.7031C93.938 24.7031 94.5425 24.4284 95.0187 23.8789C95.4949 23.3294 95.733 22.4502 95.733 21.2413C95.733 20.0142 95.4949 19.135 95.0187 18.6038C94.5425 18.0543 93.938 17.7796 93.2054 17.7796C92.4544 17.7796 91.8408 18.0543 91.3646 18.6038C90.8884 19.135 90.6503 20.0142 90.6503 21.2413C90.6503 22.4502 90.8884 23.3294 91.3646 23.8789C91.8408 24.4284 92.4544 24.7031 93.2054 24.7031Z" fill="white"/>
<path d="M103.276 28V8.63068H107.48L114.156 20.582H113.195L119.843 8.63068H123.937V28H119.376V16.4883H119.953L114.953 25.1427H112.206L107.205 16.4608H107.837V28H103.276ZM127.036 12.1474V7.72403H132.173V12.1474H127.036ZM127.173 28V14.4827H132.064V28H127.173ZM140.23 28.3022C138.362 28.3022 137.007 27.8352 136.164 26.901C135.322 25.9486 134.9 24.5199 134.9 22.6151V8.63068H139.791V22.4502C139.791 22.8532 139.846 23.2012 139.956 23.4942C140.084 23.7873 140.276 24.0071 140.533 24.1536C140.807 24.3001 141.146 24.3734 141.549 24.3734C141.732 24.3734 141.915 24.3642 142.099 24.3459C142.3 24.3276 142.492 24.3001 142.676 24.2635L142.621 28C142.254 28.1099 141.87 28.1832 141.467 28.2198C141.082 28.2747 140.67 28.3022 140.23 28.3022ZM151.681 28.3022C150.032 28.3022 148.604 28.0183 147.395 27.4505C146.204 26.8644 145.288 26.0402 144.647 24.9778C144.006 23.9155 143.686 22.6608 143.686 21.2139C143.686 19.8218 143.988 18.6038 144.592 17.5598C145.215 16.4975 146.058 15.6732 147.12 15.0871C148.201 14.4827 149.428 14.1805 150.802 14.1805C152.175 14.1805 153.357 14.4644 154.346 15.0322C155.335 15.6 156.095 16.415 156.626 17.4774C157.176 18.5214 157.45 19.7486 157.45 21.1589V22.2304H147.779V19.9226H153.879L153.439 20.2797C153.439 19.2907 153.229 18.558 152.807 18.0818C152.386 17.5873 151.791 17.34 151.021 17.34C150.454 17.34 149.959 17.4774 149.538 17.7521C149.135 18.0085 148.823 18.3932 148.604 18.906C148.384 19.4189 148.274 20.06 148.274 20.8292V21.0765C148.274 21.9374 148.393 22.6334 148.631 23.1645C148.888 23.6957 149.281 24.0895 149.813 24.3459C150.344 24.584 151.012 24.7031 151.818 24.7031C152.514 24.7031 153.238 24.6024 153.989 24.4009C154.758 24.1811 155.436 23.8697 156.022 23.4668L157.231 26.6812C156.535 27.1758 155.683 27.5696 154.676 27.8626C153.668 28.1557 152.67 28.3022 151.681 28.3022ZM164.942 28.3022C164.118 28.3022 163.321 28.2473 162.552 28.1374C161.801 28.0275 161.114 27.8626 160.491 27.6428C159.869 27.423 159.31 27.1575 158.816 26.8461L159.942 23.6865C160.4 23.943 160.904 24.1719 161.453 24.3734C162.021 24.5749 162.607 24.7306 163.211 24.8405C163.816 24.9504 164.402 25.0053 164.97 25.0053C165.647 25.0053 166.133 24.9137 166.426 24.7306C166.719 24.5291 166.865 24.2727 166.865 23.9613C166.865 23.6865 166.765 23.4759 166.563 23.3294C166.38 23.1829 166.115 23.0821 165.767 23.0272L162.717 22.5326C161.581 22.3312 160.702 21.919 160.079 21.2963C159.457 20.6552 159.145 19.8218 159.145 18.7961C159.145 17.8437 159.411 17.0286 159.942 16.3509C160.491 15.6549 161.233 15.1238 162.167 14.7574C163.12 14.3728 164.21 14.1805 165.437 14.1805C166.096 14.1805 166.746 14.2354 167.387 14.3453C168.029 14.4369 168.642 14.5926 169.228 14.8124C169.814 15.0139 170.346 15.2886 170.822 15.6366L169.613 18.7412C169.265 18.4848 168.853 18.265 168.377 18.0818C167.9 17.8986 167.406 17.7521 166.893 17.6422C166.398 17.514 165.941 17.4499 165.519 17.4499C164.768 17.4499 164.237 17.5506 163.926 17.7521C163.614 17.9536 163.459 18.21 163.459 18.5214C163.459 18.7595 163.541 18.961 163.706 19.1258C163.871 19.2724 164.127 19.3731 164.475 19.428L167.525 19.9501C168.697 20.1332 169.595 20.5362 170.217 21.1589C170.858 21.7634 171.179 22.5876 171.179 23.6316C171.179 24.6207 170.922 25.4632 170.41 26.1592C169.897 26.8552 169.173 27.3864 168.239 27.7527C167.305 28.1191 166.206 28.3022 164.942 28.3022Z" fill="#7096FF"/>
</g>
<defs>
<filter id="filter0_d_107_33" x="36.3413" y="7.43784" width="136.841" height="22.8677" filterUnits="userSpaceOnUse" color-interpolation-filters="sRGB">
<feFlood flood-opacity="0" result="BackgroundImageFix"/>
<feColorMatrix in="SourceAlpha" type="matrix" values="0 0 0 0 0 0 0 0 0 0 0 0 0 0 0 0 0 0 127 0" result="hardAlpha"/>
<feOffset dx="0.858569" dy="0.858569"/>
<feGaussianBlur stdDeviation="0.572379"/>
<feComposite in2="hardAlpha" operator="out"/>
<feColorMatrix type="matrix" values="0 0 0 0 0 0 0 0 0 0 0 0 0 0 0 0 0 0 0.25 0"/>
<feBlend mode="normal" in2="BackgroundImageFix" result="effect1_dropShadow_107_33"/>
<feBlend mode="normal" in="SourceGraphic" in2="effect1_dropShadow_107_33" result="shape"/>
</filter>
</defs>
</svg>
