<svg width="16" height="16" viewBox="0 0 16 16" fill="none" xmlns="http://www.w3.org/2000/svg">
<path d="M5.89655 3.16828C4.22354 5.0459 3.07539 7.74342 2.96878 7.9976L0 6.72673L3.32142 3.40606C3.70687 3.0207 4.26454 2.84851 4.80581 2.9551L5.89655 3.16828ZM7.52036 11.9004C7.52036 11.9004 10.5875 10.6295 12.3508 8.86671C16.7793 4.43916 16.0412 0.979101 15.8034 0.200179C15.0243 -0.0457962 11.5635 -0.775523 7.13491 3.65203C5.37168 5.41486 4.10052 8.48135 4.10052 8.48135L7.52036 11.9004ZM12.8346 10.1048C10.9566 11.7774 8.25845 12.9253 8.00422 13.0319L9.27538 16L12.5968 12.6793C12.9822 12.294 13.1545 11.7364 13.0479 11.1953L12.8346 10.1048ZM5.74073 12.7203C5.74073 13.4009 5.46189 14.0158 5.01904 14.4586C4.05131 15.4261 0 16 0 16C0 16 0.574073 11.9496 1.5418 10.9821C1.98465 10.5393 2.59973 10.2606 3.28042 10.2606C4.64179 10.2606 5.74073 11.3593 5.74073 12.7203ZM9.02115 5.34107C9.02115 4.43916 9.75924 3.70123 10.6614 3.70123C11.5635 3.70123 12.3016 4.43916 12.3016 5.34107C12.3016 6.24298 11.5635 6.9809 10.6614 6.9809C9.75924 6.9809 9.02115 6.24298 9.02115 5.34107Z" fill="#1A1A1A"/>
</svg>
