<svg width="16" height="16" viewBox="0 0 16 16" fill="none" xmlns="http://www.w3.org/2000/svg">
<path d="M1.6 14.4762V7.61905C1.16 7.61905 0.783333 7.46984 0.47 7.17143C0.156667 6.87302 0 6.51429 0 6.09524V4.57143C0 4.15238 0.156667 3.79365 0.47 3.49524C0.783333 3.19683 1.16 3.04762 1.6 3.04762H4.16C4.09333 2.93333 4.05 2.8127 4.03 2.68571C4.01 2.55873 4 2.4254 4 2.28571C4 1.65079 4.23333 1.11111 4.7 0.666667C5.16667 0.222222 5.73333 0 6.4 0C6.70667 0 6.99333 0.0539683 7.26 0.161905C7.52667 0.269841 7.77333 0.419048 8 0.609524C8.22667 0.406349 8.47333 0.253968 8.74 0.152381C9.00667 0.0507936 9.29333 0 9.6 0C10.2667 0 10.8333 0.222222 11.3 0.666667C11.7667 1.11111 12 1.65079 12 2.28571C12 2.4254 11.9867 2.55556 11.96 2.67619C11.9333 2.79683 11.8933 2.92063 11.84 3.04762H14.4C14.84 3.04762 15.2167 3.19683 15.53 3.49524C15.8433 3.79365 16 4.15238 16 4.57143V6.09524C16 6.51429 15.8433 6.87302 15.53 7.17143C15.2167 7.46984 14.84 7.61905 14.4 7.61905V14.4762C14.4 14.8952 14.2433 15.254 13.93 15.5524C13.6167 15.8508 13.24 16 12.8 16H3.2C2.76 16 2.38333 15.8508 2.07 15.5524C1.75667 15.254 1.6 14.8952 1.6 14.4762ZM9.6 1.52381C9.37333 1.52381 9.18333 1.59683 9.03 1.74286C8.87667 1.88889 8.8 2.06984 8.8 2.28571C8.8 2.50159 8.87667 2.68254 9.03 2.82857C9.18333 2.9746 9.37333 3.04762 9.6 3.04762C9.82667 3.04762 10.0167 2.9746 10.17 2.82857C10.3233 2.68254 10.4 2.50159 10.4 2.28571C10.4 2.06984 10.3233 1.88889 10.17 1.74286C10.0167 1.59683 9.82667 1.52381 9.6 1.52381ZM5.6 2.28571C5.6 2.50159 5.67667 2.68254 5.83 2.82857C5.98333 2.9746 6.17333 3.04762 6.4 3.04762C6.62667 3.04762 6.81667 2.9746 6.97 2.82857C7.12333 2.68254 7.2 2.50159 7.2 2.28571C7.2 2.06984 7.12333 1.88889 6.97 1.74286C6.81667 1.59683 6.62667 1.52381 6.4 1.52381C6.17333 1.52381 5.98333 1.59683 5.83 1.74286C5.67667 1.88889 5.6 2.06984 5.6 2.28571ZM1.6 4.57143V6.09524H7.2V4.57143H1.6ZM7.2 14.4762V7.61905H3.2V14.4762H7.2ZM8.8 14.4762H12.8V7.61905H8.8V14.4762ZM14.4 6.09524V4.57143H8.8V6.09524H14.4Z" fill="#1A1A1A"/>
</svg>
