<svg width="32" height="32" viewBox="0 0 32 32" fill="none" xmlns="http://www.w3.org/2000/svg">
<g clip-path="url(#clip0_107_114)">
<path d="M25.5205 17.2533C25.5738 16.8533 25.6005 16.44 25.6005 16C25.6005 15.5733 25.5738 15.1467 25.5071 14.7467L28.2138 12.64C28.4538 12.4533 28.5205 12.0933 28.3738 11.8267L25.8138 7.4C25.6538 7.10666 25.3205 7.01333 25.0271 7.10666L21.8405 8.38666C21.1738 7.88 20.4671 7.45333 19.6805 7.13333L19.2005 3.74666C19.1471 3.42666 18.8805 3.2 18.5605 3.2H13.4405C13.1205 3.2 12.8671 3.42666 12.8138 3.74666L12.3338 7.13333C11.5471 7.45333 10.8271 7.89333 10.1738 8.38666L6.98714 7.10666C6.6938 7 6.36047 7.10666 6.20047 7.4L3.65381 11.8267C3.49381 12.1067 3.54714 12.4533 3.81381 12.64L6.52047 14.7467C6.4538 15.1467 6.40047 15.5867 6.40047 16C6.40047 16.4133 6.42714 16.8533 6.4938 17.2533L3.78714 19.36C3.54714 19.5467 3.48047 19.9067 3.62714 20.1733L6.18714 24.6C6.34714 24.8933 6.68047 24.9867 6.97381 24.8933L10.1605 23.6133C10.8271 24.12 11.5338 24.5467 12.3205 24.8667L12.8005 28.2533C12.8671 28.5733 13.1205 28.8 13.4405 28.8H18.5605C18.8805 28.8 19.1471 28.5733 19.1871 28.2533L19.6671 24.8667C20.4538 24.5467 21.1738 24.12 21.8271 23.6133L25.0138 24.8933C25.3071 25 25.6405 24.8933 25.8005 24.6L28.3605 20.1733C28.5205 19.88 28.4538 19.5467 28.2005 19.36L25.5205 17.2533ZM16.0005 20.8C13.3605 20.8 11.2005 18.64 11.2005 16C11.2005 13.36 13.3605 11.2 16.0005 11.2C18.6405 11.2 20.8005 13.36 20.8005 16C20.8005 18.64 18.6405 20.8 16.0005 20.8Z" fill="black"/>
</g>
<defs>
<clipPath id="clip0_107_114">
<rect width="32" height="32" fill="white"/>
</clipPath>
</defs>
</svg>
