<svg width="16" height="16" viewBox="0 0 16 16" fill="none" xmlns="http://www.w3.org/2000/svg">
<path d="M10.5524 14.0952L9.06667 15.5619C8.7746 15.854 8.41905 16 8 16C7.58095 16 7.2254 15.854 6.93333 15.5619L5.44762 14.0952H3.42857C3.00952 14.0952 2.65079 13.946 2.35238 13.6476C2.05397 13.3492 1.90476 12.9905 1.90476 12.5714V10.5524L0.438095 9.06667C0.146032 8.7746 0 8.41905 0 8C0 7.58095 0.146032 7.2254 0.438095 6.93333L1.90476 5.44762V3.42857C1.90476 3.00952 2.05397 2.65079 2.35238 2.35238C2.65079 2.05397 3.00952 1.90476 3.42857 1.90476H5.44762L6.93333 0.438095C7.2254 0.146032 7.58095 0 8 0C8.41905 0 8.7746 0.146032 9.06667 0.438095L10.5524 1.90476H12.5714C12.9905 1.90476 13.3492 2.05397 13.6476 2.35238C13.946 2.65079 14.0952 3.00952 14.0952 3.42857V5.44762L15.5619 6.93333C15.854 7.2254 16 7.58095 16 8C16 8.41905 15.854 8.7746 15.5619 9.06667L14.0952 10.5524V12.5714C14.0952 12.9905 13.946 13.3492 13.6476 13.6476C13.3492 13.946 12.9905 14.0952 12.5714 14.0952H10.5524ZM8 9.88571L9.46667 10.7619C9.60635 10.8508 9.74286 10.8476 9.87619 10.7524C10.0095 10.6571 10.0571 10.527 10.019 10.3619L9.6381 8.70476L10.9333 7.58095C11.0603 7.46667 11.0984 7.33016 11.0476 7.17143C10.9968 7.0127 10.8825 6.92698 10.7048 6.91429L9.00952 6.78095L8.34286 5.2C8.27937 5.04762 8.16508 4.97143 8 4.97143C7.83492 4.97143 7.72064 5.04762 7.65714 5.2L6.99048 6.78095L5.29524 6.91429C5.11746 6.92698 5.00317 7.0127 4.95238 7.17143C4.90159 7.33016 4.93968 7.46667 5.06667 7.58095L6.36191 8.70476L5.98095 10.3619C5.94286 10.527 5.99048 10.6571 6.12381 10.7524C6.25714 10.8476 6.39365 10.8508 6.53333 10.7619L8 9.88571Z" fill="#1A1A1A"/>
</svg>
