<svg width="16" height="16" viewBox="0 0 16 16" fill="none" xmlns="http://www.w3.org/2000/svg">
<path d="M8.64727 7.34546C7.35273 6.91636 6.72727 6.64727 6.72727 5.96364C6.72727 5.22182 7.53455 4.95273 8.04364 4.95273C8.99636 4.95273 9.34546 5.67273 9.42546 5.92727L10.5745 5.44C10.4655 5.11273 9.97818 4.04364 8.72727 3.81091V2.90909H7.27273V3.82545C5.46909 4.23273 5.46182 5.90546 5.46182 5.97818C5.46182 7.62909 7.09818 8.09455 7.89818 8.38545C9.04727 8.79273 9.55636 9.16364 9.55636 9.86182C9.55636 10.6836 8.79273 11.0327 8.11636 11.0327C6.79273 11.0327 6.41455 9.67273 6.37091 9.51273L5.16364 10C5.62182 11.5927 6.82182 12.0218 7.27273 12.1527V13.0909H8.72727V12.1891C9.01818 12.1236 10.8364 11.76 10.8364 9.84727C10.8364 8.83636 10.3927 7.94909 8.64727 7.34546ZM1.45455 14.5455H0V10.1818H4.36364V11.6364H2.56C3.73091 13.3891 5.73091 14.5455 8 14.5455C11.6145 14.5455 14.5455 11.6145 14.5455 8H16C16 12.4218 12.4218 16 8 16C5.29455 16 2.90182 14.6545 1.45455 12.6036V14.5455ZM0 8C0 3.57818 3.57818 0 8 0C10.7055 0 13.0982 1.34545 14.5455 3.39636V1.45455H16V5.81818H11.6364V4.36364H13.44C12.2691 2.61091 10.2691 1.45455 8 1.45455C4.38545 1.45455 1.45455 4.38545 1.45455 8H0Z" fill="#1A1A1A"/>
</svg>
